<svg xmlns="http://www.w3.org/2000/svg" viewBox="0 0 512 512">
  <defs>
    <linearGradient id="shieldGradient" x1="0%" y1="0%" x2="100%" y2="100%">
      <stop offset="0%" style="stop-color:#0ea5e9;stop-opacity:1" />
      <stop offset="100%" style="stop-color:#0284c7;stop-opacity:1" />
    </linearGradient>
    <filter id="shadow">
      <feDropShadow dx="0" dy="4" stdDeviation="6" flood-opacity="0.3"/>
    </filter>
  </defs>
  
  <path d="M 256 50 L 140 120 L 140 250 Q 140 360 256 420 Q 372 360 372 250 L 372 120 Z" fill="url(#shieldGradient)" filter="url(#shadow)"/>
  <path d="M 256 50 L 140 120 L 140 250 Q 140 360 256 420 Q 372 360 372 250 L 372 120 Z" fill="none" stroke="#ffffff" stroke-width="8" stroke-linejoin="round"/>
  
  <rect x="180" y="260" width="152" height="24" rx="3" fill="#06b6d4"/>
  <path d="M 180 260 L 176 255 L 328 255 L 332 260 Z" fill="#0891b2" opacity="0.8"/>
  
  <rect x="190" y="230" width="132" height="24" rx="3" fill="#f59e0b"/>
  <path d="M 190 230 L 186 225 L 318 225 L 322 230 Z" fill="#d97706" opacity="0.8"/>
  
  <rect x="200" y="200" width="112" height="24" rx="3" fill="#d4a574"/>
  <path d="M 200 200 L 196 195 L 308 195 L 312 200 Z" fill="#b8915c" opacity="0.8"/>
  
  <rect x="200" y="140" width="112" height="8" rx="2" fill="#1f2937"/>
  <path d="M 160 140 L 200 110 L 312 110 L 352 140" fill="#1f2937"/>
  <line x1="256" y1="140" x2="256" y2="185" stroke="#f59e0b" stroke-width="4" stroke-linecap="round"/>
  <circle cx="256" cy="190" r="5" fill="#f59e0b"/>
  
  <g transform="translate(190, 95)">
    <path d="M 0 -8 L 2.4 -2.4 L 8 0 L 2.4 2.4 L 0 8 L -2.4 2.4 L -8 0 L -2.4 -2.4 Z" fill="#c0c0c0" opacity="0.6"/>
  </g>
  
  <g transform="translate(256, 70)">
    <path d="M 0 -10 L 3 -3 L 10 0 L 3 3 L 0 10 L -3 3 L -10 0 L -3 -3 Z" fill="#f59e0b"/>
  </g>
  
  <g transform="translate(322, 95)">
    <path d="M 0 -8 L 2.4 -2.4 L 8 0 L 2.4 2.4 L 0 8 L -2.4 2.4 L -8 0 L -2.4 -2.4 Z" fill="#c0c0c0" opacity="0.6"/>
  </g>
  
  <g transform="translate(310, 320)">
    <path d="M 0 -8 L 2.4 -2.4 L 8 0 L 2.4 2.4 L 0 8 L -2.4 2.4 L -8 0 L -2.4 -2.4 Z" fill="#f59e0b"/>
  </g>
</svg>
